<svg width="98" height="98" viewBox="0 0 98 98" fill="none" xmlns="http://www.w3.org/2000/svg">
<path d="M97.9713 0H0.0287109C0.0128543 0 0 0.0128543 0 0.0287109V97.9713C0 97.9871 0.0128543 98 0.0287109 98H97.9713C97.9871 98 98 97.9871 98 97.9713V0.0287109C98 0.0128543 97.9871 0 97.9713 0Z" fill="#C80A0A"/>
<path d="M79.0508 57.8047C77.3281 55.8906 73.5 54.9336 68.3321 54.9336C65.2696 54.9336 62.0156 55.3164 58.1875 55.8906C54.1342 52.0941 50.767 47.6261 48.2344 42.6836C50.1485 36.9414 51.4883 31.3906 51.4883 27.1797C51.4883 23.9258 50.3399 18.7578 45.7461 18.7578C44.4063 18.7578 43.2578 19.5234 42.4922 20.6719C40.5781 24.1172 41.3438 31.7734 44.9805 39.8125C42.3239 47.4942 39.1258 54.9779 35.4102 62.207C25.2656 66.418 18.5664 71.0117 17.9922 74.6484C17.6094 76.3711 18.7578 79.2422 22.7774 79.2422C28.711 79.2422 35.2188 70.6289 40.1953 61.8242C45.9402 59.8488 51.8269 58.3131 57.8047 57.2305C65.0781 63.5469 71.3946 64.5039 74.4571 64.5039C80.5821 64.5039 81.1563 60.1016 79.0508 57.8047ZM43.4492 21.2461C44.9805 18.9492 48.4258 19.7148 48.4258 24.3086C48.4258 27.3711 47.4688 32.3477 45.5547 38.0898C42.1094 30.0508 42.1094 23.7344 43.4492 21.2461ZM19.1406 74.8398C19.7149 71.7773 25.457 67.5664 34.4531 63.9297C29.4766 72.3516 24.5 77.7109 21.4375 77.7109C19.5235 77.7109 18.9492 75.9883 19.1406 74.8398ZM56.8477 56.082C51.4544 57.0871 46.144 58.4946 40.961 60.293C43.7939 55.1796 46.1026 49.7928 47.8516 44.2148C50.3673 48.5145 53.3874 52.4984 56.8477 56.082ZM59.336 56.8477C65.461 55.8906 70.6289 56.082 72.9258 56.4648C78.4766 57.6133 76.5625 64.3125 70.4375 62.7812C66.0352 61.8242 62.3985 59.3359 59.336 56.8477Z" fill="white"/>
</svg>
