<svg width="90" height="90" viewBox="0 0 90 90" fill="none" xmlns="http://www.w3.org/2000/svg">
<path d="M44.5246 89.0493C36.8398 89.0493 29.5511 87.0687 23.213 83.662L0 90L6.02113 66.9454C2.21831 60.3697 0 52.6849 0 44.5247C0 19.9648 19.9648 0 44.5246 0V89.0493Z" fill="#FBFBFB"/>
<path opacity="0.4" d="M44.5244 0C62.8255 0 77.7198 19.9648 77.7198 44.5246C77.7198 69.0845 62.8255 89.0493 44.5244 89.0493C69.0843 89.0493 89.0491 69.0845 89.0491 44.5246C89.0491 19.9648 69.0843 0 44.5244 0Z" fill="white"/>
<path opacity="0.6" d="M44.5244 0C54.8237 0 63.1424 19.9648 63.1424 44.5246C63.1424 69.0845 54.8237 89.0493 44.5244 89.0493C62.8255 89.0493 77.7198 69.0845 77.7198 44.5246C77.7198 19.9648 62.8255 0 44.5244 0Z" fill="white"/>
<path opacity="0.8" d="M44.5244 0V89.0493C54.8237 89.0493 63.1424 69.0845 63.1424 44.5246C63.1424 19.9648 54.8237 0 44.5244 0Z" fill="white"/>
</svg>
