<svg width="92" height="90" viewBox="0 0 92 90" fill="none" xmlns="http://www.w3.org/2000/svg">
<path d="M45.6854 90H11.9545V52.4619H6.62453C0.761591 52.4619 -2.20795 45.3807 1.90372 41.1929L40.9646 1.9797C42.2591 0.685279 43.9342 0 45.6854 0V90Z" fill="#4310C5"/>
<path d="M45.6855 90H79.4165V52.4619H84.7465C90.6094 52.4619 93.5789 45.3807 89.4673 41.1929L50.3302 1.9797C49.0358 0.685279 47.3607 0 45.6855 0V90Z" fill="#AB95E5"/>
<path d="M63.5789 90H45.6855V0C46.9038 0 48.1221 0.685279 49.0358 1.9797L77.1322 41.269C80.1018 45.4569 77.9698 52.5381 73.782 52.5381H69.9749V90.0762H63.5789V90Z" fill="#8869DA"/>
<path d="M59.7718 90V52.4619H61.98C64.4165 52.4619 65.6348 45.3807 63.9597 41.1929L47.5891 1.9797C47.0561 0.685279 46.3708 0 45.6855 0V90H56.0409H59.7718Z" fill="#663CD0"/>
</svg>
