<svg width="25" height="25" viewBox="0 0 25 25" fill="none" xmlns="http://www.w3.org/2000/svg">
<g id="Vkontakte (VK)">
<g id="Vkontakte (VK)_2">
<rect id="Rectangle" width="25" height="25" rx="12.5" fill="#5181B8"/>
<path id="Vector" fill-rule="evenodd" clip-rule="evenodd" d="M20.4508 8.61186C20.5667 8.22557 20.4508 7.94165 19.8993 7.94165H18.076C17.6124 7.94165 17.3988 8.18689 17.2828 8.4574C17.2828 8.4574 16.3555 10.7174 15.042 12.1855C14.617 12.6104 14.4238 12.7455 14.192 12.7455C14.0761 12.7455 13.9084 12.6104 13.9084 12.2242V8.61186C13.9084 8.14821 13.7738 7.94165 13.3874 7.94165H10.5222C10.2325 7.94165 10.0582 8.15681 10.0582 8.36076C10.0582 8.80031 10.7149 8.90164 10.7826 10.1379V12.823C10.7826 13.4117 10.6764 13.5185 10.4445 13.5185C9.82642 13.5185 8.32294 11.2482 7.43107 8.65054C7.25629 8.1456 7.08099 7.94165 6.61499 7.94165H4.79165C4.27069 7.94165 4.1665 8.18689 4.1665 8.4574C4.1665 8.94032 4.78475 11.3357 7.04478 14.5036C8.55164 16.6669 10.6743 17.8398 12.606 17.8398C13.7651 17.8398 13.9084 17.5793 13.9084 17.1306V15.4955C13.9084 14.9745 14.0182 14.8706 14.385 14.8706C14.6557 14.8706 15.1192 15.0058 16.2011 16.0489C17.4373 17.285 17.641 17.8398 18.3365 17.8398H20.1598C20.6808 17.8398 20.9413 17.5793 20.791 17.0653C20.6266 16.5529 20.0364 15.8098 19.2531 14.9286C18.8281 14.4262 18.1906 13.8854 17.9976 13.615C17.7271 13.2672 17.8043 13.1128 17.9976 12.8039C17.9976 12.8039 20.219 9.67448 20.4508 8.61199V8.61186Z" fill="white"/>
</g>
</g>
</svg>
