<svg width="25" height="25" viewBox="0 0 25 25" fill="none" xmlns="http://www.w3.org/2000/svg">
<g id="WhatsApp">
<g id="WhatsApp_2">
<rect id="Rectangle" width="25" height="25" rx="12.5" fill="#0DC143"/>
<path id="Vector" d="M18.0993 6.88106C16.7592 5.50156 14.9067 4.75269 13.0148 4.75269C8.99454 4.75269 5.76256 8.02408 5.80197 12.0049C5.80197 13.2662 6.1567 14.488 6.74792 15.5917L5.72314 19.336L9.54634 18.3507C10.6105 18.9419 11.793 19.2178 12.9754 19.2178C16.9563 19.2178 20.1882 15.9464 20.1882 11.9655C20.1882 10.0342 19.4394 8.22115 18.0993 6.88106ZM13.0148 17.9959C11.9506 17.9959 10.8864 17.72 9.9799 17.1682L9.74341 17.05L7.45738 17.6412L8.04859 15.3946L7.89094 15.1581C6.1567 12.3597 6.98441 8.65471 9.82224 6.92048C12.6601 5.18624 16.3256 6.01395 18.0599 8.85178C19.7941 11.6896 18.9664 15.3552 16.1285 17.0894C15.222 17.6806 14.1184 17.9959 13.0148 17.9959ZM16.4833 13.6209L16.0497 13.4239C16.0497 13.4239 15.4191 13.148 15.0249 12.9509C14.9855 12.9509 14.9461 12.9115 14.9067 12.9115C14.7885 12.9115 14.7096 12.9509 14.6308 12.9903C14.6308 12.9903 14.5914 13.0297 14.0396 13.6603C14.0002 13.7392 13.9213 13.7786 13.8425 13.7786H13.8031C13.7637 13.7786 13.6849 13.7392 13.6454 13.6998L13.4484 13.6209C13.0148 13.4239 12.6207 13.1874 12.3054 12.8721C12.2265 12.7932 12.1083 12.7144 12.0295 12.6356C11.7536 12.3597 11.4776 12.0444 11.2806 11.6896L11.2412 11.6108C11.2017 11.5714 11.2017 11.532 11.1623 11.4531C11.1623 11.3743 11.1623 11.2955 11.2017 11.2561C11.2017 11.2561 11.3594 11.059 11.4776 10.9407C11.5565 10.8619 11.5959 10.7437 11.6747 10.6648C11.7536 10.5466 11.793 10.3889 11.7535 10.2707C11.7141 10.0736 11.2412 9.00944 11.1229 8.77296C11.0441 8.65471 10.9653 8.6153 10.847 8.57588H10.7288C10.6499 8.57588 10.5317 8.57588 10.4135 8.57588C10.3346 8.57588 10.2558 8.6153 10.177 8.6153L10.1376 8.65471C10.0587 8.69413 9.9799 8.77296 9.90107 8.81237C9.82224 8.8912 9.78283 8.97003 9.704 9.04886C9.4281 9.40359 9.27044 9.83714 9.27044 10.2707C9.27044 10.586 9.34927 10.9013 9.46751 11.1772L9.50693 11.2955C9.86166 12.0444 10.3346 12.7144 10.9653 13.3056L11.1229 13.4633C11.2412 13.5815 11.3594 13.6603 11.4382 13.7786C12.2659 14.488 13.2119 15.0004 14.2761 15.2763C14.3943 15.3157 14.552 15.3157 14.6702 15.3552C14.7885 15.3552 14.9461 15.3552 15.0644 15.3552C15.2614 15.3552 15.4979 15.2763 15.6556 15.1975C15.7738 15.1187 15.8526 15.1187 15.9315 15.0398L16.0103 14.961C16.0891 14.8822 16.168 14.8428 16.2468 14.7639C16.3256 14.6851 16.4045 14.6063 16.4439 14.5275C16.5227 14.3698 16.5621 14.1727 16.6015 13.9757C16.6015 13.8968 16.6015 13.7786 16.6015 13.6998C16.6015 13.6998 16.5621 13.6603 16.4833 13.6209Z" fill="white"/>
</g>
</g>
</svg>
