<svg width="25" height="25" viewBox="0 0 25 25" fill="none" xmlns="http://www.w3.org/2000/svg">
<g id="YouTube">
<g id="YouTube_2">
<rect id="Rectangle" width="25" height="25" rx="12.5" fill="#FF0000"/>
<path id="Exclude" fill-rule="evenodd" clip-rule="evenodd" d="M18.6135 7.36467C19.2828 7.54485 19.8105 8.07255 19.9907 8.74182C20.3253 9.96453 20.3124 12.5129 20.3124 12.5129C20.3124 12.5129 20.3124 15.0484 19.9907 16.2711C19.8105 16.9404 19.2828 17.4681 18.6135 17.6483C17.3908 17.9701 12.5 17.9701 12.5 17.9701C12.5 17.9701 7.622 17.9701 6.38642 17.6354C5.71715 17.4552 5.18945 16.9275 5.00927 16.2583C4.6875 15.0484 4.6875 12.5 4.6875 12.5C4.6875 12.5 4.6875 9.96453 5.00927 8.74182C5.18945 8.07255 5.73002 7.53198 6.38642 7.35179C7.60913 7.03003 12.5 7.03003 12.5 7.03003C12.5 7.03003 17.3908 7.03003 18.6135 7.36467ZM15.0097 12.5L10.9426 14.8425V10.1576L15.0097 12.5Z" fill="white"/>
</g>
</g>
</svg>
