<svg width="90" height="90" viewBox="0 0 90 90" fill="none" xmlns="http://www.w3.org/2000/svg">
<path fill-rule="evenodd" clip-rule="evenodd" d="M45.0002 1C57.1213 1 66.9802 10.6817 67.2672 22.7333C79.3187 23.0202 89.0005 32.8794 89.0005 45.0002C89.0005 57.1213 79.3187 66.9802 67.2672 67.2672C66.9798 79.3187 57.1206 89 45.0002 89V1V1Z" fill="#AB95E5"/>
<path fill-rule="evenodd" clip-rule="evenodd" d="M45.0002 1C32.8792 1 23.0202 10.6817 22.7333 22.7333C10.6817 23.0202 1 32.8794 1 45.0002C1 57.1213 10.6817 66.9802 22.7333 67.2672C23.0207 79.3187 32.8799 89 45.0002 89V1Z" fill="#4310C5"/>
<path fill-rule="evenodd" clip-rule="evenodd" d="M45.0002 1C54.2621 1 61.7952 10.6817 62.0144 22.7333C71.2233 23.0202 78.621 32.8794 78.621 45.0002C78.621 57.1213 71.2233 66.9802 62.0144 67.2672C61.7947 79.3187 54.2614 89 45.0002 89V1Z" fill="#8869DA"/>
<path fill-rule="evenodd" clip-rule="evenodd" d="M45.0002 1C49.6309 1 53.3976 10.6817 53.5076 22.7333C58.1117 23.0202 61.8106 32.8794 61.8106 45.0002C61.8106 57.1213 58.1119 66.9802 53.5076 67.2672C53.3974 79.3187 49.6309 89 45.0002 89V1Z" fill="#663CD0"/>
<path d="M39.8637 43.4918H43.6706C48.0295 43.4918 51.5653 47.0265 51.5653 51.3861L39.283 51.3866L39.2846 53.1413H53.32V51.3866C53.3153 49.5196 52.7741 47.6908 51.7655 46.1222L56.8293 46.1238C56.8293 46.1227 56.8309 46.1227 56.8309 46.1227C60.2142 46.1227 63.2983 48.0712 64.7515 51.1251C60.6027 56.6012 53.8849 60.1593 46.3025 60.1593C41.4585 60.1593 37.3547 59.1241 34.0211 57.3088V40.9848C36.1537 41.2888 38.1742 42.1554 39.8653 43.4918H39.8637V43.4918ZM30.5123 39.1052C31.403 39.1052 32.1516 39.7718 32.2552 40.6549L32.2668 40.8599V56.6501C32.2673 57.6184 31.4816 58.4041 30.5128 58.4041L27.0036 58.4046C26.0357 58.4041 25.25 57.6184 25.25 56.6494V40.8592C25.25 39.8908 26.0357 39.1052 27.0047 39.1052H30.5123ZM48.057 30.2107L48.678 29.589C49.5003 28.76 50.6222 28.2912 51.7919 28.2912C54.2141 28.2912 56.1786 30.2554 56.1786 32.6779C56.1786 33.848 55.7105 34.97 54.8803 35.7938L48.057 42.6144L41.2322 35.7895C40.4024 34.9668 39.9344 33.8449 39.9344 32.6752C39.9344 30.2529 41.8986 28.2885 44.3211 28.2885C45.4907 28.2885 46.5968 28.7736 47.4359 29.5872L48.0568 30.2105L48.057 30.2107Z" fill="#FEFEFE"/>
</svg>
