<svg width="105" height="90" viewBox="0 0 105 90" fill="none" xmlns="http://www.w3.org/2000/svg">
<path d="M52.3065 90C51.4822 90 50.6579 89.7752 49.9835 89.2506C39.4173 82.0566 -0.074831 53.2057 0.000106504 29.0758C0.000106504 9.06744 13.1142 0 29.1508 0C34.0967 0 38.0684 0.824313 42.8644 2.92256C45.9368 4.27144 49.309 6.06994 52.4564 7.86844L52.3065 90Z" fill="#AB0000"/>
<path d="M52.3066 90C53.131 90 53.9553 89.7752 54.6297 89.2506C65.1959 81.9817 104.763 53.2806 104.838 29.1507C104.838 9.14238 91.8737 0 75.7621 0C70.8162 0 66.8445 0.749376 62.0485 2.92256C58.9761 4.27144 55.6039 6.06994 52.4565 7.79351L52.3066 90Z" fill="#FF2626"/>
<path d="M52.4565 7.8684L52.3066 90C52.8312 90 53.2808 89.7751 53.7304 89.2506C60.25 81.9816 84.6797 53.2806 84.7546 29.1507C84.7546 11.6153 78.6097 2.4729 70.4415 0.449585C67.6688 0.89921 65.046 1.64859 62.0485 2.99746C59.051 4.34634 55.6788 6.0699 52.4565 7.8684Z" fill="#E31919"/>
<path d="M52.3066 90C52.5315 90 52.7563 89.7752 52.9061 89.2507C55.7538 81.9817 66.32 53.2806 66.32 29.1507C66.32 15.3622 64.6713 6.89428 62.2733 2.84766C62.2733 2.92259 62.1984 2.92259 62.0485 2.99753C58.6763 4.49628 53.8054 7.1191 52.4565 7.86847L52.3066 90Z" fill="#C70D0D"/>
</svg>
