<svg width="90" height="90" viewBox="0 0 90 90" fill="none" xmlns="http://www.w3.org/2000/svg">
<path fill-rule="evenodd" clip-rule="evenodd" d="M45.0002 1H48.8766C54.8118 1 59.6673 5.85511 59.6673 11.7903V30.3333H78.2104C84.1456 30.3333 89.0007 35.1884 89.0007 41.1236V48.876C89.0007 54.8111 84.1456 59.6667 78.2104 59.6667H59.6673V78.2098C59.6673 84.1449 54.8116 89 48.8766 89H45.0002V1V1Z" fill="#D1E7D3"/>
<path fill-rule="evenodd" clip-rule="evenodd" d="M45.0004 1H41.124C35.1889 1 30.3333 5.85511 30.3333 11.7903V30.3333H11.7902C5.8551 30.3333 1 35.1884 1 41.1236V48.876C1 54.8111 5.8551 59.6667 11.7902 59.6667H30.3333V78.2098C30.3333 84.1449 35.1891 89 41.124 89H45.0004V1V1Z" fill="#1A8725"/>
<path fill-rule="evenodd" clip-rule="evenodd" d="M45.0002 1H47.9965C52.5848 1 56.3385 5.85511 56.3385 11.7903V30.3333H70.6733C75.2615 30.3333 79.0148 35.1884 79.0148 41.1236V48.876C79.0148 54.8111 75.2615 59.6667 70.6733 59.6667H56.3385V78.2098C56.3385 84.1449 52.5848 89 47.9965 89H45.0002V1V1Z" fill="#A3CFA8"/>
<path fill-rule="evenodd" clip-rule="evenodd" d="M45.0002 1H46.9381C49.9057 1 52.3335 5.85511 52.3335 11.7903V30.3333H61.6052C64.5728 30.3333 67.0001 35.1884 67.0001 41.1236V48.876C67.0001 54.8111 64.5728 59.6667 61.6052 59.6667H52.3335V78.2098C52.3335 84.1449 49.9057 89 46.9381 89H45.0002V1V1Z" fill="#65A96C"/>
<path fill-rule="evenodd" clip-rule="evenodd" d="M89.0011 47.9031V48.8766C89.0011 49.4135 88.961 49.9413 88.8842 50.4576H87.7925H60.1106L57.4819 58.9531C57.3044 59.5246 56.7535 59.8972 56.1589 59.8487C55.5625 59.8003 55.0789 59.3452 54.9964 58.7526L52.4298 40.4528L49.0995 54.4444C48.9627 55.0203 48.4483 55.4267 47.8573 55.4267C47.8554 55.4267 47.8539 55.4267 47.8524 55.4267C47.2589 55.4241 46.7455 55.0146 46.6121 54.4356L44.3887 44.7902L40.0132 60.5633C39.8577 61.1201 39.3513 61.4986 38.7827 61.4986C38.7431 61.4986 38.7034 61.4971 38.6633 61.4937C38.0478 61.4361 37.5615 60.9466 37.5091 60.3302L35.3609 35.2331L30.1513 49.7527C29.9694 50.2606 29.4883 50.599 28.9485 50.599H1.74775H1.13913C1.04829 50.0378 1.00024 49.4623 1.00024 48.8766V48.0435H1.57759H28.0504L34.9325 28.862C35.1354 28.2968 35.7035 27.9487 36.3 28.0266C36.8954 28.1038 37.3565 28.5863 37.4077 29.1847L39.4492 53.0371L43.2724 39.2572C43.4283 38.6935 43.9446 38.3064 44.5318 38.3215C45.1161 38.3343 45.6171 38.7419 45.7486 39.3115L47.8772 48.5472L51.5121 33.2753C51.654 32.6778 52.2024 32.2687 52.815 32.2945C53.4286 32.3238 53.9344 32.7854 54.02 33.3936L56.7329 52.7331L57.9487 48.8023C58.114 48.268 58.6091 47.9034 59.1695 47.9034H87.9376H89.0009L89.0011 47.9031Z" fill="#FEFEFE"/>
</svg>
