<svg width="25" height="25" viewBox="0 0 25 25" fill="none" xmlns="http://www.w3.org/2000/svg">
<g id="Odnoklassniki (OK)">
<g id="Odnoklassniki (OK)_2">
<rect id="Rectangle" width="25" height="25" rx="12.5" fill="#EE8208"/>
<path id="Vector" d="M12.5 6.68767C13.4821 6.68767 14.2809 7.48652 14.2809 8.46862C14.2809 9.44989 13.4819 10.2487 12.5 10.2487C11.5185 10.2487 10.7194 9.44989 10.7194 8.46862C10.7192 7.48631 11.5187 6.68767 12.5 6.68767ZM12.5 12.7684C14.8722 12.7684 16.8014 10.8399 16.8014 8.46862C16.8014 6.09614 14.8724 4.16675 12.5 4.16675C10.1279 4.16675 8.19852 6.09635 8.19852 8.46862C8.19852 10.8399 10.1279 12.7684 12.5 12.7684ZM14.2402 16.277C15.125 16.0755 15.9695 15.7258 16.7378 15.2428C17.0207 15.0648 17.2212 14.7818 17.2954 14.456C17.3696 14.1301 17.3113 13.7882 17.1333 13.5053C17.0453 13.3651 16.9305 13.2436 16.7955 13.1478C16.6605 13.052 16.508 12.9838 16.3466 12.947C16.1852 12.9102 16.0181 12.9056 15.855 12.9334C15.6918 12.9613 15.5357 13.021 15.3956 13.1092C13.6334 14.2171 11.3653 14.2162 9.60454 13.1092C9.46449 13.021 9.30841 12.9612 9.14525 12.9334C8.98208 12.9055 8.81503 12.9101 8.65364 12.9469C8.49226 12.9837 8.33972 13.052 8.20474 13.1478C8.06977 13.2436 7.95501 13.3651 7.86703 13.5053C7.68902 13.7881 7.63062 14.13 7.70468 14.4558C7.77874 14.7817 7.97918 15.0648 8.26193 15.2428C9.0302 15.7256 9.87448 16.0753 10.7592 16.277L8.35458 18.682C8.11828 18.9184 7.98556 19.239 7.98561 19.5732C7.98567 19.9075 8.1185 20.228 8.35489 20.4643C8.59128 20.7006 8.91186 20.8333 9.2461 20.8333C9.58034 20.8332 9.90087 20.7004 10.1372 20.464L12.4996 18.1012L14.8634 20.4642C14.9803 20.5812 15.1191 20.6741 15.2719 20.7374C15.4247 20.8008 15.5885 20.8334 15.7539 20.8334C15.9193 20.8334 16.0831 20.8008 16.2359 20.7374C16.3887 20.6741 16.5275 20.5812 16.6443 20.4642C16.7616 20.3473 16.8546 20.2085 16.918 20.0556C16.9815 19.9027 17.0141 19.7388 17.0141 19.5733C17.0141 19.4078 16.9815 19.2439 16.918 19.091C16.8546 18.9381 16.7616 18.7993 16.6443 18.6824L14.2402 16.277Z" fill="white"/>
</g>
</g>
</svg>
