<svg width="90" height="90" viewBox="0 0 90 90" fill="none" xmlns="http://www.w3.org/2000/svg">
<path fill-rule="evenodd" clip-rule="evenodd" d="M45.0002 2H68.0154C79.0072 2 88.0003 10.9931 88.0003 21.9843V68.015C88.0003 79.0062 79.0072 88 68.0154 88H45.0002V2V2Z" fill="#7EB5FF"/>
<path fill-rule="evenodd" clip-rule="evenodd" d="M45.0001 2H21.985C10.9932 2 2 10.9931 2 21.9843V68.015C2 79.0062 10.9932 88 21.985 88H45.0001V2V2Z" fill="#324FE2"/>
<path fill-rule="evenodd" clip-rule="evenodd" d="M45.0002 2H59.2565C66.0652 2 71.636 10.9931 71.636 21.9843V68.015C71.636 79.0062 66.0652 88 59.2565 88H45.0002V2V2Z" fill="#6593F5"/>
<path fill-rule="evenodd" clip-rule="evenodd" d="M45.0002 2H52.1286C55.5327 2 58.318 10.9931 58.318 21.9843V68.015C58.318 79.0062 55.5325 88 52.1286 88H45.0002V2V2Z" fill="#4B71EC"/>
<path d="M31.8661 23.0329C32.9699 23.0799 33.9845 23.7028 34.5963 24.6572C35.2929 25.7437 36.3739 27.4307 37.7798 29.6303C39.0643 31.6369 39.1531 34.2284 38.0064 36.3215L35.4314 39.9862C34.7347 40.9778 34.5959 42.2473 35.0636 43.3651C35.7916 45.1063 37.2032 47.7813 39.7107 50.2891C42.2185 52.7966 44.8935 54.2083 46.6351 54.9363C47.7529 55.404 49.022 55.2652 50.014 54.5685L53.6786 51.9934C55.7717 50.8467 58.3626 50.938 60.3691 52.2201C62.5691 53.6264 64.2561 54.707 65.3426 55.4036C66.2966 56.0158 66.9195 57.03 66.9669 58.1338C67.2373 64.4014 62.3822 66.9402 60.9697 66.9402C59.9922 66.9402 48.2386 68.276 34.9814 55.0191C21.724 41.7616 23.0598 30.0076 23.0598 29.0299C23.0598 27.6178 25.599 22.7624 31.8661 23.0331V23.0329Z" fill="#FEFEFE"/>
</svg>
