<svg width="25" height="25" viewBox="0 0 25 25" fill="none" xmlns="http://www.w3.org/2000/svg">
<g id="Telegram">
<g id="Telegram_2">
<g id="Rectangle">
<rect width="25" height="25" rx="12.5" fill="#419FD9"/>
<rect width="25" height="25" rx="12.5" fill="url(#paint0_linear_0_3882)"/>
</g>
<path id="Vector" d="M5.61842 12.2245C9.25347 10.6075 11.6774 9.54147 12.8902 9.02641C16.3531 7.55581 17.0726 7.30036 17.5416 7.29183C17.6448 7.29006 17.8754 7.31617 18.0248 7.43994C18.151 7.54445 18.1857 7.68563 18.2023 7.78472C18.2189 7.88381 18.2396 8.10954 18.2231 8.28591C18.0355 10.299 17.2235 15.1844 16.8104 17.4391C16.6356 18.3932 16.2915 18.7131 15.9583 18.7444C15.2342 18.8124 14.6843 18.2558 13.983 17.7864C12.8855 17.0519 12.2655 16.5946 11.2002 15.8779C9.96911 15.0495 10.7672 14.5943 11.4688 13.8502C11.6524 13.6555 14.8429 10.6925 14.9046 10.4238C14.9124 10.3901 14.9195 10.2648 14.8466 10.1987C14.7737 10.1325 14.6661 10.1551 14.5884 10.1731C14.4784 10.1986 12.7252 11.3818 9.32881 13.7226C8.83117 14.0715 8.38042 14.2415 7.97657 14.2326C7.53135 14.2228 6.67493 13.9756 6.03827 13.7643C5.25737 13.5051 4.63674 13.3681 4.69078 12.9279C4.71893 12.6987 5.02814 12.4642 5.61842 12.2245Z" fill="white"/>
</g>
</g>
<defs>
<linearGradient id="paint0_linear_0_3882" x1="12.5" y1="0" x2="12.5" y2="24.8145" gradientUnits="userSpaceOnUse">
<stop stop-color="#2AABEE"/>
<stop offset="1" stop-color="#229ED9"/>
</linearGradient>
</defs>
</svg>
