<svg width="25" height="25" viewBox="0 0 25 25" fill="none" xmlns="http://www.w3.org/2000/svg">
<g id="Twitter">
<g id="Twitter_2">
<rect id="Rectangle" width="25" height="25" rx="12.5" fill="#1DA1F2"/>
<path id="Path" d="M18.6265 9.7981C18.6265 9.93481 18.6265 10.0715 18.6265 10.1887C18.6265 14.2317 15.5405 18.8997 9.91553 18.8997C8.17725 18.8997 6.57568 18.3918 5.2085 17.5325C5.44287 17.552 5.69678 17.5715 5.93115 17.5715C7.35693 17.5715 8.68506 17.0833 9.73975 16.2629C8.39209 16.2434 7.25928 15.345 6.88818 14.134C7.0835 14.1731 7.25928 14.1926 7.47412 14.1926C7.74756 14.1926 8.021 14.1536 8.2749 14.0754C6.86865 13.802 5.81396 12.5715 5.81396 11.0872C5.81396 11.0676 5.81396 11.0676 5.81396 11.0481C6.22412 11.2825 6.69287 11.4192 7.20068 11.4387C6.38037 10.8918 5.8335 9.95435 5.8335 8.88013C5.8335 8.31372 5.98975 7.78638 6.24365 7.33716C7.74756 9.19263 10.0132 10.4036 12.5522 10.5403C12.4937 10.3254 12.4741 10.0715 12.4741 9.83716C12.4741 8.13794 13.8413 6.77075 15.5405 6.77075C16.4194 6.77075 17.2202 7.14185 17.7671 7.72778C18.4702 7.59106 19.1147 7.33716 19.7202 6.9856C19.4858 7.70825 18.9976 8.29419 18.3726 8.68481C18.9976 8.60669 19.5835 8.45044 20.1304 8.19653C19.7397 8.82153 19.2319 9.36841 18.6265 9.7981Z" fill="white"/>
</g>
</g>
</svg>
