<svg width="75" height="85" viewBox="0 0 75 85" fill="none" xmlns="http://www.w3.org/2000/svg">
<path d="M48.171 40.76C55.0831 36.7695 59.5724 29.1448 59.0736 20.5225C58.4323 9.40609 49.3112 0.427465 38.1235 -8.85834e-05C25.6532 -0.427642 15.3919 9.47735 15.3919 21.8764C15.3919 29.9999 19.8812 37.1258 26.4371 40.9025L5.91449 52.9453C2.20903 55.083 0 59.0023 0 63.2066V72.2564C0 78.8123 5.34442 84.1567 11.9002 84.1567H62.5653C69.1211 84.1567 74.4656 78.8123 74.4656 72.2564V63.2066C74.4656 59.0023 72.2565 55.083 68.6223 52.9453L48.171 40.76Z" fill="#324FE2"/>
<path d="M48.385 40.7601C54.9409 36.9834 59.3589 29.9287 59.3589 21.8052C59.3589 9.76247 49.5964 0 37.4824 0V84.228H74.8221V56.3658L48.385 40.7601Z" fill="#7EB5FF"/>
<path d="M45.107 40.7601C49.8101 36.9833 52.9455 29.9287 52.9455 21.8052C52.9455 9.76244 45.9621 -0.0712891 37.2686 -0.0712891V84.1567H63.9906V58.646C63.9906 57.1496 63.2781 55.7957 61.9954 54.7268L45.107 40.7601Z" fill="#6593F5"/>
<path d="M40.9028 40.7601C43.0405 36.9834 44.537 29.9287 44.537 21.8052C44.4657 9.76247 41.2591 0 37.2686 0V84.228H49.5963V58.6461C49.5963 57.1496 49.2401 55.7957 48.67 54.7268L40.9028 40.7601Z" fill="#4B71EC"/>
</svg>
