<svg width="28" height="28" viewBox="0 0 28 28" fill="none" xmlns="http://www.w3.org/2000/svg">
<path d="M12.8333 2.33325C18.6293 2.33325 23.3333 7.03725 23.3333 12.8333C23.3333 18.6293 18.6293 23.3333 12.8333 23.3333C7.03731 23.3333 2.33331 18.6293 2.33331 12.8333C2.33331 7.03725 7.03731 2.33325 12.8333 2.33325ZM12.8333 20.9999C17.3448 20.9999 21 17.3448 21 12.8333C21 8.32059 17.3448 4.66659 12.8333 4.66659C8.32065 4.66659 4.66665 8.32059 4.66665 12.8333C4.66665 17.3448 8.32065 20.9999 12.8333 20.9999ZM22.7325 21.0828L26.033 24.3821L24.3821 26.0329L21.0828 22.7324L22.7325 21.0828Z" fill="#8D8D8D"/>
</svg>
