<svg width="30" height="30" viewBox="0 0 30 30" fill="none" xmlns="http://www.w3.org/2000/svg">
<rect width="30" height="30" rx="15" fill="black" fill-opacity="0.5"/>
<path d="M7.8 8H22.2C22.4122 8 22.6157 8.08194 22.7657 8.22781C22.9157 8.37367 23 8.5715 23 8.77778V21.2222C23 21.4285 22.9157 21.6263 22.7657 21.7722C22.6157 21.9181 22.4122 22 22.2 22H7.8C7.58783 22 7.38434 21.9181 7.23431 21.7722C7.08429 21.6263 7 21.4285 7 21.2222V8.77778C7 8.5715 7.08429 8.37367 7.23431 8.22781C7.38434 8.08194 7.58783 8 7.8 8ZM15.048 14.7534L9.9184 10.5184L8.8824 11.7038L15.0584 16.8021L21.1232 11.6999L20.0768 10.5231L15.0488 14.7534H15.048Z" fill="white"/>
</svg>
