<svg width="30" height="30" viewBox="0 0 30 30" fill="none" xmlns="http://www.w3.org/2000/svg">
<rect width="30" height="30" rx="15" fill="black" fill-opacity="0.5"/>
<path fill-rule="evenodd" clip-rule="evenodd" d="M24.5411 10.3341C24.6802 9.87058 24.5411 9.52988 23.8794 9.52988H21.6914C21.135 9.52988 20.8787 9.82416 20.7396 10.1488C20.7396 10.1488 19.6269 12.8608 18.0505 14.6225C17.5406 15.1324 17.3088 15.2945 17.0306 15.2945C16.8915 15.2945 16.6902 15.1324 16.6902 14.6689V10.3341C16.6902 9.77775 16.5288 9.52988 16.0651 9.52988H12.6268C12.2792 9.52988 12.0701 9.78806 12.0701 10.0328C12.0701 10.5603 12.8581 10.6819 12.9394 12.1653V15.3875C12.9394 16.0939 12.8118 16.2221 12.5336 16.2221C11.7919 16.2221 9.98773 13.4977 8.91748 10.3805C8.70774 9.77462 8.49738 9.52988 7.93819 9.52988H5.75018C5.12503 9.52988 5 9.82416 5 10.1488C5 10.7283 5.74189 13.6027 8.45393 17.4042C10.2622 20.0001 12.8093 21.4076 15.1274 21.4076C16.5183 21.4076 16.6902 21.0951 16.6902 20.5567V18.5945C16.6902 17.9693 16.822 17.8446 17.2622 17.8446C17.587 17.8446 18.1432 18.0069 19.4415 19.2586C20.925 20.7419 21.1694 21.4076 22.004 21.4076H24.192C24.8171 21.4076 25.1297 21.0951 24.9493 20.4782C24.7521 19.8634 24.0438 18.9716 23.1039 17.9142C22.594 17.3114 21.8289 16.6623 21.5973 16.3379C21.2727 15.9206 21.3654 15.7352 21.5973 15.3645C21.5973 15.3645 24.2629 11.6093 24.5411 10.3343V10.3341Z" fill="white"/>
</svg>
