<svg width="30" height="30" viewBox="0 0 30 30" fill="none" xmlns="http://www.w3.org/2000/svg">
<rect width="30" height="30" rx="15" fill="#808080"/>
<path d="M21.7193 8.25718C20.1112 6.60177 17.8882 5.70312 15.6179 5.70312C10.7936 5.70312 6.91522 9.6288 6.96251 14.4058C6.96251 15.9193 7.38819 17.3856 8.09765 18.7099L6.86792 23.2031L11.4558 22.0207C12.7328 22.7302 14.1517 23.0612 15.5706 23.0612C20.3477 23.0612 24.226 19.1356 24.226 14.3585C24.226 12.041 23.3274 9.86529 21.7193 8.25718ZM15.6179 21.595C14.3409 21.595 13.0639 21.2639 11.976 20.6018L11.6922 20.4599L8.949 21.1693L9.65846 18.4734L9.46927 18.1896C7.38819 14.8315 8.38143 10.3856 11.7868 8.30448C15.1922 6.2234 19.5909 7.21664 21.672 10.622C23.7531 14.0274 22.7598 18.4261 19.3544 20.5072C18.2666 21.2166 16.9422 21.595 15.6179 21.595ZM19.7801 16.345L19.2598 16.1085C19.2598 16.1085 18.5031 15.7774 18.0301 15.541C17.9828 15.541 17.9355 15.4937 17.8882 15.4937C17.7463 15.4937 17.6517 15.541 17.5571 15.5883C17.5571 15.5883 17.5098 15.6356 16.8477 16.3923C16.8004 16.4869 16.7058 16.5342 16.6112 16.5342H16.5639C16.5166 16.5342 16.422 16.4869 16.3747 16.4396L16.1382 16.345C15.6179 16.1085 15.1449 15.8247 14.7666 15.4464C14.672 15.3518 14.5301 15.2572 14.4355 15.1626C14.1044 14.8315 13.7733 14.4531 13.5368 14.0274L13.4895 13.9329C13.4422 13.8856 13.4422 13.8383 13.3949 13.7437C13.3949 13.6491 13.3949 13.5545 13.4422 13.5072C13.4422 13.5072 13.6314 13.2707 13.7733 13.1288C13.8679 13.0342 13.9152 12.8923 14.0098 12.7977C14.1044 12.6558 14.1517 12.4666 14.1044 12.3247C14.0571 12.0883 13.4895 10.8112 13.3476 10.5274C13.2531 10.3856 13.1585 10.3383 13.0166 10.291H12.8747C12.7801 10.291 12.6382 10.291 12.4963 10.291C12.4017 10.291 12.3071 10.3383 12.2125 10.3383L12.1652 10.3856C12.0706 10.4329 11.976 10.5274 11.8814 10.5747C11.7868 10.6693 11.7395 10.7639 11.6449 10.8585C11.3139 11.2842 11.1247 11.8045 11.1247 12.3247C11.1247 12.7031 11.2193 13.0815 11.3612 13.4126L11.4085 13.5545C11.8341 14.4531 12.4017 15.2572 13.1585 15.9666L13.3476 16.1558C13.4895 16.2977 13.6314 16.3923 13.726 16.5342C14.7193 17.3856 15.8544 18.0004 17.1314 18.3315C17.2733 18.3788 17.4625 18.3788 17.6044 18.4261C17.7463 18.4261 17.9355 18.4261 18.0774 18.4261C18.3139 18.4261 18.5977 18.3315 18.7868 18.2369C18.9287 18.1423 19.0233 18.1423 19.1179 18.0477L19.2125 17.9531C19.3071 17.8585 19.4017 17.8112 19.4963 17.7166C19.5909 17.622 19.6855 17.5274 19.7328 17.4329C19.8274 17.2437 19.8747 17.0072 19.922 16.7707C19.922 16.6761 19.922 16.5342 19.922 16.4396C19.922 16.4396 19.8747 16.3923 19.7801 16.345Z" fill="white"/>
</svg>
